<svg width="375" height="87" viewBox="0 0 375 87" fill="none" xmlns="http://www.w3.org/2000/svg">
<path d="M31.1745 2.34019L58.1724 53.1361H4.17657L31.1745 2.34019Z" fill="#05DC82"/>
<mask id="mask0" mask-type="alpha" maskUnits="userSpaceOnUse" x="4" y="2" width="55" height="52">
<path d="M31.1745 2.34019L58.1724 53.1361H4.17659L31.1745 2.34019Z" fill="#C4C4C4"/>
</mask>
<g mask="url(#mask0)">
<rect x="31.1745" y="2.34019" width="27.3258" height="50.7959" fill="#F5BABA"/>
</g>
<ellipse cx="44.6449" cy="53.1361" rx="25.4014" ry="25.3979" fill="#F5BABA"/>
<mask id="mask1" mask-type="alpha" maskUnits="userSpaceOnUse" x="19" y="27" width="52" height="52">
<ellipse cx="44.6449" cy="53.1361" rx="25.4014" ry="25.3979" fill="#C4C4C4"/>
</mask>
<g mask="url(#mask1)">
<rect x="44.645" y="53.1361" width="25.4015" height="25.3979" fill="#FBFF21"/>
</g>
<mask id="mask2" mask-type="alpha" maskUnits="userSpaceOnUse" x="19" y="27" width="52" height="52">
<ellipse cx="44.6449" cy="53.1361" rx="25.4014" ry="25.3979" fill="#C4C4C4"/>
</mask>
<g mask="url(#mask2)">
<rect x="19.2435" y="27.7381" width="25.4014" height="25.3979" fill="#FBFF21"/>
</g>
<mask id="mask3" mask-type="alpha" maskUnits="userSpaceOnUse" x="19" y="27" width="52" height="52">
<ellipse cx="44.6449" cy="53.1361" rx="25.4014" ry="25.3979" fill="#C4C4C4"/>
</mask>
<g mask="url(#mask3)">
<rect x="44.645" y="27.7381" width="25.4015" height="25.3979" fill="#05DC82"/>
</g>
<path d="M127.331 64.9279H133.857L116.752 16.5833H105.417L88.3122 64.9279H94.8382L100.265 49.6755H121.904L127.331 64.9279ZM102.326 43.8197L109.882 22.4391H112.287L119.843 43.8197H102.326Z" fill="#FBFF21"/>
<path d="M154.996 32.2442C150.669 32.2442 145.997 34.8998 143.799 38.3043V32.2442H137.617V64.9279H143.799V49.6074C143.799 41.2323 149.57 38.1001 153.004 38.1001H159.668V32.2442H154.996Z" fill="#FBFF21"/>
<path d="M167.148 23.6648C169.415 23.6648 171.27 21.8944 171.27 19.6474C171.27 17.4004 169.415 15.4939 167.148 15.4939C164.881 15.4939 163.027 17.4004 163.027 19.6474C163.027 21.8944 164.881 23.6648 167.148 23.6648ZM164.057 64.9279H170.24V32.2442H164.057V64.9279Z" fill="#FBFF21"/>
<path d="M207.217 56.5527V44.6368C207.217 34.4912 201.927 31.1548 195.813 31.1548H189.081C182.349 31.1548 177.609 36.1254 177.609 41.0961H183.792C183.792 38.9172 186.265 37.0106 189.699 37.0106H193.821C199.935 37.0106 200.897 39.6662 201.034 44.2283H189.837C181.8 44.2283 176.716 48.4499 176.716 54.4419V55.1909C176.716 63.498 183.448 65.9493 189.837 65.9493C194.096 65.9493 199.248 64.9279 201.584 61.3872C202.957 64.8598 206.736 64.9279 209.896 64.9279V59.0721C208.659 59.0721 207.217 58.6635 207.217 56.5527ZM191.829 60.0935C185.372 60.0935 182.899 58.7316 182.899 54.9185C182.899 52.7396 184.135 49.4032 191.829 49.4032H201.034V54.7824C201.034 59.1402 194.577 60.0935 191.829 60.0935Z" fill="#FBFF21"/>
<path d="M254.976 15.4939H249.343C237.665 15.4939 228.803 23.3924 228.803 38.4405V43.0707C228.803 58.1188 237.665 66.0174 249.343 66.0174H254.976C266.654 66.0174 275.516 58.1188 275.516 43.0707V38.4405C275.516 23.5967 266.654 15.4939 254.976 15.4939ZM269.333 42.526C269.333 51.8544 265.211 59.753 252.159 59.753C239.107 59.753 234.986 51.8544 234.986 42.526V38.9853C234.986 29.6568 239.107 21.3497 252.159 21.3497C265.211 21.3497 269.333 29.6568 269.333 38.9853V42.526Z" fill="#FBFF21"/>
<path d="M310.311 55.0547C310.311 49.0627 306.877 45.9986 294.443 44.773C288.879 44.2283 286.474 43.4793 286.474 40.7556C286.474 38.5086 289.428 36.8063 293.893 36.8063C299.252 36.8063 301.312 38.4405 301.999 40.8237H308.869C307.358 34.2189 301.45 31.1548 294.58 31.1548C285.513 31.1548 280.292 35.1041 280.292 41.3003C280.292 46.271 283.108 49.1308 292.382 50.2203C302.137 51.3778 304.129 52.0587 304.129 54.9866C304.129 57.3017 302.824 60.1615 294.993 60.1615C288.535 60.1615 286.337 57.9145 285.788 55.5314H278.918C280.429 62.1362 285.169 66.0174 294.924 66.0174C305.503 66.0174 310.311 61.5915 310.311 55.0547Z" fill="#FBFF21"/>
<path d="M316.845 15.4939V64.9279H323.027V15.4939H316.845Z" fill="#FBFF21"/>
<path d="M347.689 31.1548H343.705C335.942 31.1548 329.21 35.8531 329.21 45.9986V51.1735C329.21 61.3191 335.942 66.0174 343.705 66.0174H347.689C355.451 66.0174 362.183 61.3191 362.183 51.1735V45.9986C362.183 35.8531 355.451 31.1548 347.689 31.1548ZM356.001 50.0841C356.001 56.2123 353.528 60.1615 345.697 60.1615C337.866 60.1615 335.393 56.2123 335.393 50.0841V47.0881C335.393 40.9599 337.866 37.0106 345.697 37.0106C353.528 37.0106 356.001 40.9599 356.001 47.0881V50.0841Z" fill="#FBFF21"/>
</svg>
